<!-- Generated by IcoMoon.io -->
<svg version="1.1" xmlns="http://www.w3.org/2000/svg" width="24" height="24" viewBox="0 0 1024 1024" fill='#fff'>
<g id="icomoon-ignore">
</g>
<path d="M560.012 100.471c12.3-1.319 26.552 1.249 38.4 4.612 26.807 7.608 48.586 23.903 61.513 47.162 13.43 23.841 16.008 51.709 7.15 77.338-11.25 31.61-35.368 47.505-65.5 62.113l0.338 92.187c21.532 6.117 42.486 13.042 62.038 23.601 44.938 24.271 75.675 65.204 88.562 111.775 13.623 48.833 5.876 100.724-21.537 144.25-25.144 39.452-65.24 68.589-113.238 79.75-62.7 14.597-115.873-1.211-169.763-31.063-23.821 23.732-47.359 47.734-70.587 71.988 10.385 22.824 13.824 46.77 6.938 71.025-6.733 23.712-24.566 44.026-47.375 56.037-25.559 13.478-54.679 15.935-82.701 8.462-27.809-7.415-51.183-23.468-64.774-47.587-13.377-23.712-14.51-51.498-5.838-76.813 9.868-28.773 29.969-46.5 58.226-59.651 30.412-11.084 55.551-7.439 85.238 2.525 24.717-24.234 47.99-49.69 72.961-73.713-27.444-50.149-36.343-92.864-22.075-148.125-31.069-13.514-61.024-29.249-92.113-42.787-16.612 16.113-36.916 27.16-60.762 30.899-28.438 4.461-58.426-2.769-81.8-18.324-23.159-15.633-38.396-39.459-42.138-65.875-3.84-25.618 3.392-53.856 21-74.075 18.156-20.85 46.336-33.422 74.788-36.2 27.958-2.538 55.857 5.405 77.512 22.075 27.689 21.608 35.68 48.462 39.037 80.475 29.469 16.835 63.219 29.819 93.925 44.85 39.95-44.005 69.133-57.888 127.363-74.612l0.050-91.488c-10.423-3.886-20.829-8.616-29.912-14.836-22.973-15.835-38.062-39.689-41.787-66.088-3.444-26.264 4.516-52.732 22.112-73.5 19.229-22.477 44.933-32.71 74.749-36.388zM688.387 555.584c-5.924-62.941-65.268-109.609-132.85-104.488-68.184 5.17-118.825 61.061-112.85 124.55 5.978 63.511 66.289 110.339 134.4 104.375 67.507-5.929 117.224-61.504 111.3-124.438z"></path>
<path d="M883.75 402.737c2.883-0.133 5.681-0.172 8.549 0.215 8.964 1.211 17.796 5.244 22.733 12.577 5.238 7.78 5.955 18.14 6.671 27.153 3.555 44.604 0.914 91.005 0.902 135.767-0.010 36.556 4.338 86.126-2.948 121.33-2.291 11.064-10.167 16.356-19.598 22.342-3.592 0.406-7.351 0.869-10.973 0.676-8.093-0.425-15.759-3.785-20.993-9.54-5.175-5.696-5.025-17.129-5.484-24.274-3.288-51.308-0.508-104.257-0.458-155.721 0.029-29.244-4.285-85.226 2.313-111.324 2.36-9.336 11.393-14.23 19.286-19.201z"></path>
<path d="M801.135 474.4c9.713 1.668 18.305 5.069 23.965 12.928 8.73 12.125 8.965 130.92 4.593 147.875-2.392 9.268-10.999 13.787-19.159 18.248-9.344-0.521-21.628-1.293-27.869-8.844-9.286-11.219-8.517-137.475-3.231-153.308 3.072-9.199 13.222-13.088 21.701-16.899z"></path>
</svg>
